<?xml version="1.0" encoding="UTF-8" standalone="no"?><!DOCTYPE svg PUBLIC "-//W3C//DTD SVG 1.1//EN" "http://www.w3.org/Graphics/SVG/1.1/DTD/svg11.dtd"><svg width="100%" height="100%" viewBox="0 0 75 88" version="1.1" xmlns="http://www.w3.org/2000/svg" xmlns:xlink="http://www.w3.org/1999/xlink" xml:space="preserve" xmlns:serif="http://www.serif.com/" style="fill-rule:evenodd;clip-rule:evenodd;stroke-linejoin:round;stroke-miterlimit:2;"><path d="M37.5,87.5c-5.208,0 -10.087,-0.99 -14.635,-2.969c-4.549,-1.979 -8.507,-4.653 -11.875,-8.021c-3.368,-3.368 -6.042,-7.326 -8.021,-11.875c-1.979,-4.548 -2.969,-9.427 -2.969,-14.635c-0,-5.208 0.99,-10.087 2.969,-14.635c1.979,-4.549 4.653,-8.507 8.021,-11.875c3.368,-3.368 7.326,-6.042 11.875,-8.021c4.548,-1.979 9.427,-2.969 14.635,-2.969l0.625,-0l-6.458,-6.458l5.833,-6.042l16.667,16.667l-16.667,16.666l-5.833,-6.041l6.458,-6.459l-0.625,0c-8.125,0 -15.017,2.83 -20.677,8.49c-5.66,5.66 -8.49,12.552 -8.49,20.677c0,8.125 2.83,15.017 8.49,20.677c5.66,5.66 12.552,8.49 20.677,8.49c8.125,-0 15.017,-2.83 20.677,-8.49c5.66,-5.66 8.49,-12.552 8.49,-20.677l8.333,-0c0,5.208 -0.99,10.087 -2.969,14.635c-1.979,4.549 -4.653,8.507 -8.021,11.875c-3.368,3.368 -7.326,6.042 -11.875,8.021c-4.548,1.979 -9.427,2.969 -14.635,2.969Z" style="fill-rule:nonzero;"/><path d="M25,62.5l0,-18.75l-6.25,0l0,-6.25l12.5,0l0,25l-6.25,0Z" style="fill-rule:nonzero;"/><path d="M35.417,62.5l-0,-6.25l11.111,0l-0,-4.167l-11.111,0l-0,-14.583l16.666,0l0,6.25l-11.111,0l0,4.167l11.111,-0l0,14.583l-16.666,0Z" style="fill-rule:nonzero;"/></svg>